<?xml version="1.0" encoding="utf-8"?>
<!-- Generator: Adobe Illustrator 25.2.3, SVG Export Plug-In . SVG Version: 6.00 Build 0)  -->
<svg version="1.1" id="Layer_1" xmlns="http://www.w3.org/2000/svg" xmlns:xlink="http://www.w3.org/1999/xlink" x="0px" y="0px"
	 viewBox="0 0 50 50" style="enable-background:new 0 0 50 50;" xml:space="preserve">
<style type="text/css">
	.st0{fill:url(#SVGID_1_);}
</style>
<g>
	<linearGradient id="SVGID_1_" gradientUnits="userSpaceOnUse" x1="35.1561" y1="10.1782" x2="11.207" y2="44.1951">
		<stop  offset="0" style="stop-color:#3C3A61"/>
		<stop  offset="0.1959" style="stop-color:#34305B"/>
		<stop  offset="0.6217" style="stop-color:#1D0D46"/>
		<stop  offset="1" style="stop-color:#000027"/>
	</linearGradient>
	<path class="st0" d="M22,16.2c-0.8,0.6-1.2,1.4-1.2,2.5c0,0.7,0.2,1.3,0.7,1.8c0.5,0.5,1.1,0.9,1.9,1.2c0.7,0.3,1.8,0.7,3.1,1.1
		c1.8,0.6,3.3,1.1,4.4,1.6c1.1,0.5,2.1,1.3,2.9,2.3S35,29,35,30.6c0,2.3-0.8,4.3-2.4,5.9s-3.8,2.5-6.5,2.8l-0.2,2.2
		c-0.1,0.7-0.3,1.3-0.7,1.8c-0.4,0.4-1,0.6-1.7,0.6c-0.7,0-1.3-0.2-1.8-0.7c-0.4-0.5-0.6-1-0.6-1.7l0.2-2.2c-2.9-0.2-5.3-0.9-7.1-2
		c-0.5-0.2-0.8-0.6-1-1c-0.2-0.4-0.3-0.8-0.3-1.3c0-0.7,0.2-1.3,0.6-1.8c0.4-0.5,1-0.8,1.6-0.8c0.4,0,0.8,0.1,1.2,0.3
		c1.1,0.6,2.3,1,3.4,1.4c1.2,0.3,2.5,0.5,4,0.5c1.6,0,2.9-0.3,3.7-0.9c0.8-0.6,1.3-1.4,1.3-2.5c0-0.6-0.2-1.1-0.7-1.6
		c-0.5-0.4-1-0.8-1.7-1.1s-1.7-0.6-2.9-1c-1.9-0.6-3.4-1.2-4.6-1.7c-1.2-0.6-2.2-1.4-3.1-2.4c-0.9-1.1-1.3-2.4-1.3-4.1
		c0-1.5,0.4-2.9,1.1-4.2c0.8-1.3,1.8-2.3,3.2-3.1c1.4-0.8,3-1.3,4.7-1.5l0.2-2.1c0.1-0.7,0.3-1.3,0.8-1.7C25,6.2,25.6,6,26.2,6
		C27,6,27.6,6.2,28,6.6c0.4,0.5,0.6,1,0.6,1.7l-0.2,2.2c2.8,0.4,5.1,1.2,6.7,2.4c0.6,0.5,0.9,1.1,0.9,1.8c0,0.7-0.2,1.3-0.7,1.8
		c-0.5,0.5-1.1,0.8-1.8,0.8c-0.5,0-1-0.1-1.4-0.4c-2.3-1.3-4.5-1.9-6.8-1.9C23.9,15.2,22.8,15.5,22,16.2z"/>
</g>
</svg>
