<?xml version="1.0" encoding="utf-8"?>
<!-- Generator: Adobe Illustrator 25.2.3, SVG Export Plug-In . SVG Version: 6.00 Build 0)  -->
<svg version="1.1" id="Layer_1" xmlns="http://www.w3.org/2000/svg" xmlns:xlink="http://www.w3.org/1999/xlink" x="0px" y="0px"
	 viewBox="0 0 50 50" style="enable-background:new 0 0 50 50;" xml:space="preserve">
<style type="text/css">
	.st0{fill:url(#SVGID_1_);}
	.st1{fill:url(#SVGID_2_);}
</style>
<g>
	<linearGradient id="SVGID_1_" gradientUnits="userSpaceOnUse" x1="34.528" y1="2.92" x2="-0.8618" y2="44.3097">
		<stop  offset="0" style="stop-color:#3C3A61"/>
		<stop  offset="0.1959" style="stop-color:#34305B"/>
		<stop  offset="0.6217" style="stop-color:#1D0D46"/>
		<stop  offset="1" style="stop-color:#000027"/>
	</linearGradient>
	<path class="st0" d="M24.7,24.2c2.7,0,5.1-1,7-2.9c1.9-1.9,2.9-4.3,2.9-7c0-2.7-1-5.1-2.9-7c-1.9-1.9-4.3-2.9-7-2.9
		c-2.7,0-5.1,1-7,2.9s-2.9,4.3-2.9,7c0,2.7,1,5.1,2.9,7C19.7,23.3,22,24.2,24.7,24.2z"/>
	<linearGradient id="SVGID_2_" gradientUnits="userSpaceOnUse" x1="45.3409" y1="12.1654" x2="9.9512" y2="53.5552">
		<stop  offset="0" style="stop-color:#3C3A61"/>
		<stop  offset="0.1959" style="stop-color:#34305B"/>
		<stop  offset="0.6217" style="stop-color:#1D0D46"/>
		<stop  offset="1" style="stop-color:#000027"/>
	</linearGradient>
	<path class="st1" d="M42,36c-0.1-0.8-0.2-1.7-0.3-2.6c-0.2-0.9-0.4-1.8-0.6-2.6c-0.3-0.8-0.6-1.6-1.1-2.4c-0.5-0.8-1-1.5-1.6-2.1
		c-0.6-0.6-1.4-1.1-2.3-1.5c-0.9-0.4-1.9-0.5-3-0.5c-0.4,0-0.8,0.2-1.6,0.7c-0.5,0.3-1,0.7-1.7,1.1c-0.5,0.3-1.3,0.7-2.2,1
		c-0.9,0.3-1.8,0.4-2.6,0.4c-0.9,0-1.8-0.1-2.6-0.4c-0.9-0.3-1.6-0.6-2.2-1c-0.6-0.4-1.2-0.8-1.7-1.1c-0.8-0.5-1.2-0.7-1.6-0.7
		c-1.1,0-2.1,0.2-3,0.5c-0.9,0.4-1.7,0.8-2.3,1.5c-0.6,0.6-1.2,1.3-1.6,2.1c-0.4,0.8-0.8,1.6-1.1,2.4c-0.3,0.8-0.5,1.7-0.6,2.6
		C8.1,34.4,8,35.2,8,36c-0.1,0.8-0.1,1.6-0.1,2.4c0,2.1,0.7,3.9,2,5.2c1.3,1.3,3.1,1.9,5.2,1.9h19.8c2.1,0,3.9-0.6,5.2-1.9
		c1.3-1.3,2-3,2-5.2C42.1,37.6,42.1,36.8,42,36z"/>
</g>
</svg>
